<svg width="172" height="135" viewBox="0 0 172 135" fill="none" xmlns="http://www.w3.org/2000/svg">
<path d="M124.824 1.75977H125.084C125.314 1.75977 125.554 1.75977 125.784 1.78977C126.584 1.85977 127.374 1.98977 128.154 2.18977C129.204 2.45977 130.234 2.81977 131.224 3.27977C132.324 3.78977 133.374 4.39977 134.364 5.10977C135.334 5.79977 136.244 6.57977 137.074 7.44977C137.794 8.19977 138.444 9.02977 139.004 9.90977C139.244 10.2998 139.454 10.6698 139.634 11.0198C139.814 11.3698 139.944 11.6698 140.044 11.9298C140.144 12.1898 140.214 12.4098 140.264 12.5598C140.294 12.6398 140.314 12.7098 140.334 12.7898C140.334 12.7898 140.244 12.7798 140.094 12.7398C139.944 12.6998 139.724 12.6498 139.454 12.5698C139.184 12.4898 138.864 12.3898 138.514 12.2598C138.164 12.1298 137.774 11.9698 137.354 11.7998C136.434 11.3998 135.544 10.9498 134.674 10.4498C133.734 9.90977 132.774 9.28977 131.834 8.61977C130.904 7.95977 130.004 7.24977 129.154 6.49977C128.374 5.81977 127.624 5.09977 126.914 4.33977C126.374 3.76977 125.874 3.16977 125.394 2.54977C125.214 2.31977 125.084 2.10977 124.994 1.97977C124.904 1.84977 124.854 1.75977 124.854 1.75977H124.824Z" fill="#BA7C9E"/>
<path d="M128.346 16.12C128.346 16.12 128.426 16.02 128.466 15.98C128.556 15.9 128.666 15.77 128.836 15.63C129.266 15.27 129.736 14.96 130.236 14.72C130.926 14.39 131.656 14.16 132.406 14.04C133.296 13.89 134.196 13.86 135.096 13.95C136.066 14.04 137.016 14.24 137.946 14.55C138.846 14.85 139.706 15.25 140.526 15.74C140.906 15.97 141.256 16.2 141.576 16.43C141.896 16.66 142.166 16.88 142.386 17.07C142.606 17.26 142.796 17.44 142.916 17.55C142.986 17.61 143.046 17.67 143.106 17.74C143.056 17.78 143.016 17.82 142.966 17.85C142.826 17.95 142.686 18.04 142.536 18.12C142.316 18.24 142.096 18.35 141.866 18.45C141.576 18.57 141.286 18.67 140.976 18.75C140.246 18.95 139.486 19.07 138.726 19.11C137.846 19.15 136.966 19.11 136.096 19C135.186 18.88 134.286 18.69 133.406 18.44C132.566 18.2 131.746 17.9 130.956 17.55C130.326 17.27 129.706 16.95 129.116 16.6C128.886 16.47 128.696 16.33 128.566 16.26C128.436 16.19 128.366 16.13 128.366 16.13L128.346 16.12Z" fill="#BA7C9E"/>
<path d="M140.675 0C140.635 0.05 140.605 0.1 140.575 0.16C140.495 0.31 140.425 0.46 140.355 0.62C140.145 1.16 140.015 1.72 139.955 2.3C139.875 3.11 139.895 3.93 140.005 4.74C140.135 5.7 140.345 6.66 140.635 7.59C140.945 8.59 141.315 9.57 141.745 10.52C142.165 11.43 142.635 12.32 143.155 13.18C143.395 13.58 143.635 13.95 143.865 14.29C144.095 14.63 144.305 14.92 144.485 15.17C144.665 15.42 144.835 15.62 144.945 15.75C145.055 15.88 145.125 15.96 145.125 15.96C145.175 15.92 145.215 15.87 145.255 15.82C145.365 15.69 145.465 15.56 145.565 15.42C145.705 15.21 145.835 15 145.945 14.77C146.085 14.49 146.205 14.19 146.305 13.89C146.545 13.13 146.675 12.34 146.685 11.55C146.685 10.57 146.575 9.6 146.335 8.66C146.065 7.6 145.685 6.57 145.185 5.6C144.685 4.62 144.095 3.69 143.405 2.82C142.845 2.1 142.235 1.43 141.565 0.8C141.305 0.55 141.065 0.36 140.915 0.23C140.835 0.16 140.745 0.09 140.655 0.02L140.675 0Z" fill="#BA7C9E"/>
<path d="M136.635 23.7209C136.635 23.7209 136.725 23.6409 136.775 23.6009C136.875 23.5409 137.015 23.4309 137.195 23.3309C137.675 23.0509 138.195 22.8409 138.725 22.6809C139.445 22.4809 140.195 22.3809 140.955 22.3809C141.835 22.3809 142.715 22.5009 143.565 22.7309C144.475 22.9809 145.365 23.3309 146.185 23.7909C146.995 24.2309 147.755 24.7609 148.445 25.3709C148.775 25.6609 149.065 25.9409 149.325 26.2109C149.585 26.4809 149.805 26.7409 149.985 26.9709C150.165 27.2009 150.305 27.4009 150.405 27.5309C150.455 27.6009 150.505 27.6709 150.545 27.7409C150.495 27.7709 150.435 27.8009 150.375 27.8309C150.265 27.8709 150.105 27.9609 149.905 28.0209C149.675 28.1009 149.435 28.1709 149.185 28.2209C148.885 28.2809 148.575 28.3309 148.265 28.3609C147.515 28.4309 146.755 28.4209 146.015 28.3309C145.155 28.2209 144.315 28.0409 143.495 27.7809C141.835 27.2609 140.255 26.5009 138.815 25.5209C138.265 25.1509 137.735 24.7409 137.235 24.3009C137.045 24.1309 136.885 23.9709 136.785 23.8809C136.685 23.7909 136.615 23.7209 136.615 23.7209H136.635Z" fill="#BA7C9E"/>
<path d="M151.785 10.1904C151.785 10.1904 151.695 10.2804 151.655 10.3304C151.545 10.4604 151.445 10.5904 151.355 10.7304C151.045 11.2104 150.805 11.7404 150.625 12.2804C150.385 13.0404 150.225 13.8304 150.165 14.6304C150.095 15.5804 150.095 16.5404 150.185 17.4904C150.275 18.5004 150.435 19.5104 150.665 20.5004C150.885 21.4504 151.165 22.3804 151.495 23.3004C151.655 23.7304 151.805 24.1304 151.965 24.4904C152.125 24.8504 152.265 25.1704 152.395 25.4504C152.525 25.7304 152.655 25.9504 152.725 26.0904C152.765 26.1704 152.805 26.2504 152.855 26.3304C152.905 26.3004 152.955 26.2604 153.005 26.2204C153.135 26.1104 153.265 26.0004 153.385 25.8804C153.565 25.7004 153.735 25.5204 153.885 25.3204C154.075 25.0704 154.255 24.8104 154.405 24.5304C154.785 23.8404 155.065 23.1004 155.235 22.3304C155.435 21.3904 155.515 20.4304 155.465 19.4604C155.415 18.3904 155.245 17.3404 154.965 16.3104C154.685 15.2804 154.295 14.2804 153.815 13.3304C153.425 12.5504 152.975 11.7904 152.465 11.0804C152.275 10.8004 152.075 10.5704 151.965 10.4204C151.905 10.3404 151.835 10.2604 151.765 10.1904H151.785Z" fill="#BA7C9E"/>
<path d="M143.105 32.4402C143.155 32.4102 143.215 32.3802 143.275 32.3602C143.425 32.2902 143.585 32.2202 143.735 32.1602C144.255 31.9702 144.805 31.8502 145.355 31.7902C146.095 31.7102 146.845 31.7402 147.575 31.8702C148.425 32.0202 149.255 32.2902 150.045 32.6602C150.885 33.0502 151.685 33.5502 152.405 34.1302C153.105 34.7002 153.755 35.3402 154.315 36.0502C154.585 36.3802 154.815 36.7102 155.015 37.0202C155.215 37.3302 155.385 37.6202 155.525 37.8702C155.665 38.1202 155.755 38.3402 155.825 38.4802C155.865 38.5602 155.895 38.6402 155.925 38.7202C155.865 38.7402 155.805 38.7602 155.745 38.7702C155.635 38.7902 155.455 38.8502 155.255 38.8802C155.005 38.9202 154.765 38.9402 154.515 38.9502C154.205 38.9602 153.895 38.9502 153.585 38.9302C152.835 38.8702 152.105 38.7302 151.385 38.5102C150.565 38.2602 149.775 37.9402 149.025 37.5402C148.245 37.1402 147.485 36.6702 146.775 36.1502C146.105 35.6602 145.475 35.1302 144.885 34.5502C144.425 34.0902 143.985 33.6102 143.585 33.1002C143.425 32.9102 143.305 32.7202 143.225 32.6102C143.185 32.5502 143.145 32.4902 143.105 32.4202V32.4402Z" fill="#BA7C9E"/>
<path d="M160.466 21.8799C160.416 21.9099 160.366 21.9499 160.326 21.9899C160.196 22.0999 160.066 22.2099 159.946 22.3299C159.556 22.7499 159.216 23.2099 158.946 23.7099C158.566 24.4099 158.256 25.1399 158.046 25.9099C157.796 26.8199 157.616 27.7499 157.516 28.6799C157.416 29.6799 157.376 30.6799 157.416 31.6899C157.446 32.6499 157.546 33.6099 157.706 34.5599C157.776 34.9999 157.856 35.4199 157.936 35.7999C158.016 36.1799 158.106 36.5199 158.186 36.7999C158.266 37.0799 158.346 37.3299 158.386 37.4799C158.406 37.5699 158.436 37.6499 158.466 37.7299C158.526 37.7099 158.576 37.6799 158.636 37.6499C158.736 37.5899 158.896 37.5099 159.066 37.3899C159.276 37.2499 159.476 37.0899 159.656 36.9299C159.886 36.7199 160.106 36.4899 160.316 36.2499C160.816 35.6499 161.226 34.9699 161.536 34.2399C161.906 33.3599 162.166 32.4399 162.296 31.4999C162.446 30.4599 162.486 29.3999 162.406 28.3499C162.326 27.2999 162.146 26.2699 161.856 25.2599C161.626 24.4299 161.326 23.6299 160.976 22.8499C160.836 22.5499 160.696 22.2899 160.616 22.1299C160.576 22.0399 160.516 21.9599 160.456 21.8799H160.466Z" fill="#BA7C9E"/>
<path d="M147.764 42.0201C147.764 42.0201 147.824 42.0001 147.944 41.9701C148.104 41.9201 148.264 41.8901 148.434 41.8601C148.984 41.7701 149.534 41.7401 150.084 41.7801C150.824 41.8301 151.554 41.9901 152.244 42.2401C153.054 42.5401 153.814 42.9401 154.524 43.4301C155.284 43.9601 155.964 44.5801 156.574 45.2701C157.164 45.9501 157.684 46.6901 158.104 47.4801C158.304 47.8501 158.474 48.2101 158.624 48.5501C158.774 48.8901 158.884 49.2001 158.974 49.4701C159.064 49.7401 159.114 49.9701 159.164 50.1201C159.194 50.2001 159.214 50.2801 159.224 50.3701C159.164 50.3801 159.104 50.3901 159.034 50.3901C158.914 50.3901 158.734 50.4201 158.534 50.4101C158.284 50.4101 158.034 50.3901 157.794 50.3501C157.484 50.3101 157.184 50.2501 156.884 50.1701C156.164 49.9801 155.464 49.7201 154.794 49.3801C154.034 48.9901 153.324 48.5401 152.644 48.0301C151.944 47.5001 151.294 46.9201 150.684 46.2901C150.114 45.7001 149.594 45.0701 149.124 44.4001C148.754 43.8801 148.414 43.3301 148.114 42.7601C147.994 42.5501 147.914 42.3501 147.854 42.2301C147.814 42.1601 147.784 42.1001 147.754 42.0301L147.764 42.0201Z" fill="#BA7C9E"/>
<path d="M166.723 34.72C166.663 34.74 166.613 34.77 166.553 34.8C166.403 34.88 166.263 34.97 166.123 35.07C165.663 35.41 165.243 35.8 164.883 36.24C164.373 36.85 163.943 37.52 163.593 38.23C163.173 39.07 162.833 39.94 162.573 40.84C162.293 41.79 162.073 42.77 161.933 43.75C161.793 44.69 161.713 45.64 161.703 46.6C161.703 47.05 161.703 47.46 161.713 47.85C161.723 48.24 161.753 48.58 161.773 48.88C161.793 49.18 161.833 49.42 161.853 49.58C161.853 49.67 161.873 49.75 161.893 49.84C161.953 49.83 162.013 49.81 162.073 49.79C162.233 49.74 162.393 49.68 162.543 49.61C162.773 49.51 162.993 49.39 163.203 49.26C163.473 49.09 163.723 48.91 163.973 48.71C164.573 48.21 165.103 47.62 165.533 46.96C166.053 46.17 166.473 45.31 166.773 44.42C167.113 43.43 167.333 42.41 167.443 41.37C167.553 40.34 167.563 39.3 167.463 38.26C167.383 37.42 167.243 36.58 167.043 35.76C166.963 35.44 166.873 35.17 166.823 34.99C166.793 34.89 166.763 34.8 166.733 34.71L166.723 34.72Z" fill="#BA7C9E"/>
<path d="M150.615 52.1602C150.675 52.1502 150.735 52.1402 150.795 52.1402C150.915 52.1402 151.095 52.1102 151.295 52.1202C151.845 52.1202 152.395 52.2002 152.935 52.3302C153.655 52.5102 154.345 52.7902 154.985 53.1602C155.725 53.5902 156.415 54.1202 157.015 54.7202C157.665 55.3702 158.235 56.1002 158.715 56.8802C159.175 57.6502 159.555 58.4602 159.845 59.3102C159.975 59.7102 160.085 60.1002 160.175 60.4602C160.265 60.8202 160.315 61.1402 160.355 61.4202C160.395 61.7002 160.415 61.9402 160.425 62.0902C160.435 62.1702 160.445 62.2602 160.445 62.3402C160.385 62.3402 160.315 62.3402 160.255 62.3302C160.145 62.3102 159.955 62.3002 159.755 62.2602C159.515 62.2102 159.275 62.1502 159.035 62.0702C158.745 61.9702 158.455 61.8602 158.175 61.7402C157.495 61.4302 156.855 61.0502 156.255 60.5902C155.575 60.0802 154.945 59.5102 154.375 58.8802C153.775 58.2402 153.235 57.5502 152.745 56.8302C152.285 56.1502 151.885 55.4402 151.535 54.7102C151.265 54.1302 151.025 53.5402 150.825 52.9302C150.745 52.7002 150.705 52.4902 150.665 52.3602C150.625 52.2302 150.605 52.1402 150.605 52.1402L150.615 52.1602Z" fill="#BA7C9E"/>
<path d="M170.546 48.3303C170.486 48.3403 170.426 48.3603 170.366 48.3803C170.206 48.4303 170.046 48.5003 169.896 48.5703C169.376 48.8203 168.896 49.1303 168.466 49.5003C167.866 50.0103 167.316 50.5903 166.846 51.2203C166.286 51.9703 165.806 52.7603 165.386 53.6003C164.936 54.4903 164.556 55.4003 164.236 56.3403C163.936 57.2403 163.696 58.1603 163.516 59.0903C163.436 59.5203 163.366 59.9403 163.316 60.3203C163.266 60.7003 163.226 61.0403 163.206 61.3403C163.186 61.6403 163.176 61.8803 163.166 62.0403C163.166 62.1303 163.166 62.2203 163.166 62.3003C163.226 62.3003 163.286 62.3003 163.356 62.2803C163.466 62.2603 163.656 62.2403 163.856 62.1903C164.096 62.1303 164.336 62.0603 164.576 61.9603C164.866 61.8403 165.156 61.7103 165.426 61.5603C166.106 61.1703 166.726 60.6903 167.256 60.1203C167.906 59.4403 168.456 58.6703 168.916 57.8403C169.416 56.9303 169.816 55.9603 170.106 54.9603C170.396 53.9703 170.586 52.9503 170.666 51.9203C170.736 51.0803 170.746 50.2403 170.686 49.4003C170.666 49.0803 170.626 48.7903 170.606 48.6103C170.596 48.5103 170.576 48.4203 170.556 48.3203L170.546 48.3303Z" fill="#BA7C9E"/>
<path d="M151.664 62.5998C151.724 62.5998 151.784 62.5998 151.854 62.6098C151.964 62.6298 152.144 62.6298 152.354 62.6798C152.894 62.7798 153.424 62.9498 153.934 63.1698C154.614 63.4698 155.244 63.8698 155.804 64.3398C156.464 64.8898 157.044 65.5298 157.534 66.2298C158.064 66.9798 158.504 67.7998 158.834 68.6598C159.154 69.4998 159.394 70.3698 159.524 71.2498C159.584 71.6698 159.624 72.0698 159.644 72.4298C159.664 72.7898 159.664 73.1298 159.654 73.4098C159.644 73.6898 159.624 73.9298 159.614 74.0898C159.614 74.1698 159.604 74.2598 159.584 74.3398C159.524 74.3298 159.464 74.3098 159.404 74.2998C159.294 74.2598 159.114 74.2198 158.924 74.1398C158.694 74.0498 158.464 73.9498 158.244 73.8298C157.974 73.6798 157.704 73.5198 157.454 73.3498C156.834 72.9298 156.274 72.4298 155.764 71.8898C155.184 71.2698 154.664 70.5998 154.204 69.8798C153.724 69.1498 153.314 68.3798 152.954 67.5798C152.624 66.8398 152.344 66.0698 152.134 65.2798C151.964 64.6698 151.834 64.0398 151.744 63.4098C151.704 63.1698 151.694 62.9598 151.684 62.8198C151.684 62.7398 151.674 62.6598 151.674 62.5898L151.664 62.5998Z" fill="#BA7C9E"/>
<path d="M171.944 62.3301C171.884 62.3301 171.824 62.3301 171.754 62.3501C171.584 62.3701 171.414 62.4101 171.254 62.4501C170.704 62.6001 170.184 62.8301 169.684 63.1101C169.004 63.5101 168.364 63.9801 167.794 64.5201C167.114 65.1601 166.504 65.8601 165.944 66.6001C165.354 67.3901 164.824 68.2301 164.354 69.1001C163.904 69.9301 163.504 70.7901 163.164 71.6801C163.004 72.1001 162.864 72.4901 162.754 72.8501C162.644 73.2101 162.544 73.5501 162.464 73.8301C162.384 74.1101 162.344 74.3601 162.304 74.5201C162.284 74.6101 162.264 74.6901 162.254 74.7801C162.314 74.7801 162.374 74.7901 162.444 74.8001C162.564 74.8001 162.744 74.8101 162.954 74.8001C163.204 74.7801 163.454 74.7501 163.694 74.7001C164.004 74.6401 164.304 74.5501 164.604 74.4501C165.334 74.1901 166.034 73.8201 166.654 73.3501C167.414 72.7901 168.094 72.1301 168.674 71.4001C169.324 70.5901 169.884 69.7101 170.344 68.7801C170.794 67.8501 171.154 66.8801 171.424 65.8901C171.644 65.0801 171.794 64.2501 171.884 63.4101C171.924 63.0901 171.924 62.8001 171.944 62.6201C171.944 62.5201 171.954 62.4201 171.954 62.3301H171.944Z" fill="#BA7C9E"/>
<path d="M150.896 73.0703C150.896 73.0703 150.966 73.0803 151.076 73.1103C151.236 73.1503 151.396 73.2003 151.556 73.2603C152.076 73.4603 152.566 73.7103 153.026 74.0303C153.636 74.4503 154.196 74.9503 154.666 75.5203C155.216 76.1803 155.686 76.9103 156.046 77.7003C156.436 78.5403 156.726 79.4203 156.906 80.3303C157.076 81.2103 157.156 82.1203 157.136 83.0203C157.126 83.4503 157.096 83.8503 157.046 84.2103C156.996 84.5703 156.946 84.9103 156.886 85.1903C156.826 85.4703 156.766 85.7003 156.726 85.8603C156.706 85.9403 156.686 86.0203 156.656 86.1003C156.596 86.0803 156.536 86.0503 156.486 86.0203C156.386 85.9603 156.216 85.8903 156.046 85.7803C155.836 85.6503 155.626 85.5103 155.436 85.3503C155.196 85.1603 154.956 84.9503 154.736 84.7403C154.206 84.2103 153.726 83.6303 153.326 82.9903C152.866 82.2703 152.466 81.5103 152.136 80.7203C151.796 79.9103 151.516 79.0703 151.306 78.2203C151.106 77.4303 150.976 76.6203 150.896 75.8003C150.836 75.1603 150.816 74.5203 150.836 73.8803C150.836 73.6403 150.866 73.4303 150.876 73.2903C150.876 73.2203 150.886 73.1503 150.906 73.0703H150.896Z" fill="#BA7C9E"/>
<path d="M170.916 76.3606C170.856 76.3606 170.796 76.3506 170.726 76.3506C170.556 76.3506 170.386 76.3506 170.216 76.3606C169.646 76.4106 169.096 76.5406 168.556 76.7406C167.816 77.0106 167.116 77.3706 166.456 77.8006C165.676 78.3106 164.946 78.8906 164.276 79.5306C163.556 80.2106 162.886 80.9406 162.266 81.7206C161.676 82.4706 161.136 83.2506 160.646 84.0706C160.416 84.4506 160.216 84.8206 160.036 85.1606C159.856 85.5006 159.706 85.8106 159.576 86.0806C159.446 86.3506 159.356 86.5806 159.286 86.7306C159.246 86.8106 159.216 86.8906 159.186 86.9806C159.246 87.0006 159.306 87.0106 159.366 87.0306C159.536 87.0706 159.696 87.1006 159.866 87.1106C160.116 87.1406 160.366 87.1506 160.616 87.1406C160.926 87.1406 161.246 87.1006 161.556 87.0506C162.326 86.9206 163.076 86.6706 163.766 86.3206C164.606 85.9006 165.396 85.3706 166.106 84.7406C166.886 84.0506 167.596 83.2806 168.206 82.4406C168.816 81.6006 169.346 80.7106 169.776 79.7706C170.126 79.0106 170.426 78.2206 170.656 77.4106C170.746 77.1006 170.796 76.8206 170.846 76.6406C170.876 76.5406 170.886 76.4506 170.896 76.3506L170.916 76.3606Z" fill="#BA7C9E"/>
<path d="M148.315 83.2803C148.315 83.2803 148.375 83.3003 148.485 83.3603C148.635 83.4303 148.785 83.5103 148.935 83.5903C149.415 83.8803 149.855 84.2203 150.245 84.6103C150.775 85.1303 151.235 85.7203 151.595 86.3703C152.025 87.1203 152.345 87.9303 152.565 88.7703C152.805 89.6703 152.925 90.6003 152.935 91.5303C152.945 92.4403 152.855 93.3503 152.675 94.2403C152.585 94.6603 152.485 95.0503 152.375 95.4103C152.265 95.7703 152.145 96.0803 152.035 96.3503C151.925 96.6203 151.815 96.8403 151.745 96.9803C151.675 97.1203 151.625 97.2103 151.625 97.2103C151.575 97.1803 151.515 97.1403 151.465 97.1003C151.375 97.0303 151.225 96.9303 151.075 96.7803C150.895 96.6103 150.715 96.4403 150.545 96.2503C150.345 96.0203 150.145 95.7703 149.975 95.5203C149.545 94.9003 149.185 94.2403 148.905 93.5403C148.585 92.7503 148.325 91.9203 148.145 91.0803C147.955 90.2203 147.835 89.3403 147.785 88.4603C147.735 87.6403 147.745 86.8103 147.815 85.9903C147.865 85.3503 147.965 84.7103 148.105 84.0803C148.155 83.8403 148.215 83.6303 148.245 83.5103C148.275 83.3903 148.295 83.2903 148.295 83.2903L148.315 83.2803Z" fill="#BA7C9E"/>
<path d="M167.456 90.0604C167.396 90.0404 167.336 90.0304 167.276 90.0104C167.106 89.9804 166.946 89.9504 166.776 89.9304C166.206 89.8904 165.636 89.9104 165.076 90.0104C164.296 90.1504 163.536 90.3804 162.816 90.6904C161.956 91.0604 161.136 91.5104 160.356 92.0204C159.526 92.5704 158.736 93.1804 157.986 93.8404C157.266 94.4804 156.596 95.1604 155.966 95.8904C155.666 96.2304 155.406 96.5604 155.166 96.8604C154.926 97.1604 154.716 97.4504 154.546 97.7004C154.376 97.9504 154.236 98.1604 154.146 98.3005C154.056 98.4405 154.006 98.5304 154.006 98.5304C154.056 98.5604 154.116 98.5904 154.176 98.6104C154.336 98.6804 154.496 98.7304 154.656 98.7804C154.896 98.8504 155.136 98.9104 155.386 98.9404C155.696 98.9904 156.016 99.0104 156.326 99.0204C157.116 99.0204 157.896 98.9104 158.646 98.6904C159.556 98.4204 160.426 98.0304 161.236 97.5304C162.136 96.9904 162.966 96.3404 163.726 95.6104C164.476 94.8904 165.146 94.0904 165.746 93.2404C166.236 92.5404 166.666 91.8105 167.036 91.0505C167.176 90.7605 167.286 90.4904 167.366 90.3204C167.406 90.2304 167.436 90.1404 167.466 90.0404L167.456 90.0604Z" fill="#BA7C9E"/>
<path d="M143.925 92.96C143.925 92.96 143.985 92.99 144.085 93.06C144.225 93.16 144.355 93.26 144.485 93.37C144.905 93.74 145.275 94.15 145.595 94.61C146.015 95.22 146.355 95.89 146.595 96.6C146.875 97.43 147.045 98.28 147.105 99.15C147.165 100.09 147.115 101.03 146.945 101.96C146.785 102.87 146.515 103.76 146.165 104.61C145.995 105.01 145.815 105.39 145.635 105.72C145.455 106.05 145.275 106.35 145.115 106.6C144.955 106.85 144.805 107.05 144.715 107.18C144.665 107.25 144.615 107.32 144.555 107.39C144.505 107.35 144.465 107.3 144.425 107.26C144.345 107.17 144.225 107.05 144.095 106.88C143.945 106.68 143.805 106.47 143.675 106.26C143.515 105.99 143.375 105.72 143.245 105.43C142.945 104.74 142.715 104.01 142.575 103.27C142.405 102.42 142.315 101.56 142.305 100.69C142.285 99.8 142.335 98.9 142.445 98.02C142.555 97.19 142.715 96.37 142.945 95.57C143.115 94.94 143.335 94.32 143.585 93.72C143.675 93.49 143.775 93.29 143.835 93.17C143.865 93.1 143.895 93.04 143.935 92.97L143.925 92.96Z" fill="#BA7C9E"/>
<path d="M161.575 103.03C161.515 103 161.465 102.97 161.405 102.95C161.245 102.89 161.085 102.83 160.925 102.79C160.375 102.65 159.805 102.57 159.235 102.58C158.435 102.58 157.645 102.68 156.875 102.87C155.955 103.09 155.055 103.39 154.195 103.77C153.265 104.17 152.365 104.64 151.505 105.17C150.675 105.68 149.865 106.24 149.105 106.85C148.745 107.14 148.415 107.42 148.115 107.68C147.815 107.94 147.555 108.19 147.335 108.41C147.115 108.63 146.935 108.82 146.825 108.94C146.715 109.06 146.645 109.14 146.645 109.14C146.695 109.18 146.745 109.21 146.795 109.25C146.935 109.34 147.085 109.43 147.235 109.5C147.455 109.61 147.695 109.71 147.935 109.79C148.235 109.89 148.545 109.97 148.855 110.03C149.635 110.17 150.435 110.19 151.225 110.1C152.185 109.99 153.125 109.75 154.025 109.4C155.015 109.01 155.965 108.52 156.855 107.92C157.735 107.33 158.555 106.66 159.305 105.91C159.915 105.3 160.475 104.65 160.985 103.96C161.185 103.69 161.335 103.45 161.445 103.29C161.505 103.21 161.555 103.12 161.595 103.03H161.575Z" fill="#BA7C9E"/>
<path d="M137.724 101.82C137.724 101.82 137.814 101.9 137.864 101.95C137.934 102.04 138.074 102.16 138.194 102.33C138.544 102.77 138.824 103.25 139.054 103.76C139.354 104.45 139.564 105.17 139.664 105.92C139.774 106.8 139.774 107.68 139.664 108.56C139.534 109.51 139.294 110.44 138.934 111.34C138.584 112.22 138.134 113.06 137.604 113.85C137.354 114.22 137.094 114.57 136.844 114.87C136.594 115.17 136.354 115.44 136.144 115.66C135.934 115.88 135.734 116.05 135.614 116.17C135.544 116.23 135.474 116.29 135.404 116.35C135.364 116.3 135.334 116.25 135.294 116.2C135.204 116.06 135.124 115.91 135.044 115.76C134.934 115.54 134.844 115.3 134.754 115.07C134.654 114.78 134.564 114.47 134.504 114.17C134.344 113.42 134.274 112.66 134.284 111.9C134.294 111.02 134.384 110.14 134.554 109.28C134.724 108.38 134.954 107.5 135.254 106.63C135.534 105.82 135.864 105.03 136.244 104.27C136.544 103.67 136.874 103.09 137.244 102.54C137.384 102.33 137.524 102.15 137.604 102.03C137.684 101.91 137.734 101.84 137.734 101.84L137.724 101.82Z" fill="#BA7C9E"/>
<path d="M153.254 114.931C153.254 114.931 153.154 114.861 153.104 114.821C152.964 114.731 152.814 114.651 152.654 114.581C152.134 114.341 151.584 114.171 151.014 114.071C150.224 113.931 149.414 113.891 148.614 113.941C147.654 114.001 146.704 114.141 145.764 114.371C144.754 114.611 143.764 114.921 142.794 115.301C141.854 115.671 140.934 116.091 140.044 116.571C139.624 116.801 139.234 117.021 138.884 117.231C138.534 117.441 138.214 117.641 137.954 117.821C137.694 118.001 137.474 118.161 137.324 118.261C137.244 118.311 137.164 118.371 137.094 118.431C137.134 118.481 137.174 118.521 137.224 118.571C137.344 118.691 137.474 118.801 137.614 118.901C137.814 119.051 138.024 119.191 138.254 119.311C138.534 119.461 138.824 119.601 139.124 119.711C139.884 119.981 140.674 120.141 141.484 120.181C142.474 120.231 143.464 120.161 144.434 119.961C145.514 119.751 146.564 119.421 147.564 118.981C148.564 118.551 149.514 118.021 150.414 117.401C151.144 116.901 151.834 116.351 152.474 115.741C152.724 115.511 152.924 115.291 153.064 115.161C153.134 115.091 153.204 115.011 153.264 114.931H153.254Z" fill="#BA7C9E"/>
<path d="M129.715 109.6C129.715 109.6 129.785 109.7 129.825 109.75C129.885 109.85 129.985 110 130.075 110.18C130.325 110.68 130.515 111.21 130.625 111.76C130.785 112.5 130.835 113.26 130.765 114.02C130.695 114.92 130.495 115.81 130.185 116.66C129.845 117.59 129.395 118.48 128.845 119.31C128.295 120.14 127.655 120.91 126.935 121.6C126.595 121.93 126.255 122.23 125.935 122.49C125.615 122.75 125.305 122.98 125.035 123.16C124.765 123.34 124.535 123.49 124.375 123.58C124.295 123.63 124.205 123.68 124.125 123.72C124.095 123.66 124.075 123.61 124.055 123.55C124.025 123.44 123.945 123.27 123.905 123.07C123.845 122.83 123.795 122.58 123.765 122.33C123.725 122.02 123.715 121.7 123.715 121.38C123.725 120.6 123.825 119.82 124.005 119.06C124.215 118.18 124.505 117.32 124.865 116.48C125.585 114.79 126.535 113.2 127.675 111.75C128.105 111.2 128.565 110.68 129.055 110.19C129.235 110 129.415 109.85 129.525 109.75C129.585 109.69 129.645 109.64 129.715 109.6Z" fill="#BA7C9E"/>
<path d="M142.514 125.36C142.514 125.36 142.424 125.27 142.384 125.23C142.254 125.12 142.124 125.01 141.994 124.91C141.514 124.58 141.004 124.31 140.454 124.12C139.684 123.85 138.884 123.67 138.064 123.58C137.084 123.48 136.084 123.46 135.104 123.53C134.024 123.6 132.964 123.74 131.904 123.96C130.864 124.17 129.844 124.43 128.834 124.76C128.364 124.91 127.914 125.07 127.504 125.22C127.094 125.37 126.734 125.52 126.414 125.65C126.094 125.78 125.844 125.91 125.674 125.98C125.504 126.05 125.404 126.11 125.404 126.11C125.434 126.16 125.464 126.22 125.504 126.27C125.604 126.41 125.714 126.54 125.824 126.67C125.994 126.86 126.184 127.03 126.384 127.19C126.634 127.39 126.904 127.57 127.184 127.73C127.904 128.14 128.674 128.43 129.474 128.61C130.474 128.83 131.494 128.92 132.514 128.89C133.654 128.86 134.794 128.71 135.904 128.44C137.004 128.17 138.084 127.8 139.124 127.34C139.964 126.97 140.784 126.53 141.554 126.04C141.854 125.85 142.104 125.67 142.274 125.56C142.364 125.5 142.444 125.44 142.524 125.37L142.514 125.36Z" fill="#BA7C9E"/>
<path d="M47.8745 1.75977H47.6145C47.3845 1.75977 47.1445 1.75977 46.9145 1.78977C46.1145 1.85977 45.3245 1.98977 44.5445 2.18977C43.4945 2.45977 42.4645 2.81977 41.4745 3.27977C40.3745 3.78977 39.3245 4.39977 38.3445 5.10977C37.3745 5.79977 36.4645 6.57977 35.6345 7.44977C34.9145 8.19977 34.2645 9.02977 33.7045 9.90977C33.4645 10.2998 33.2545 10.6698 33.0845 11.0198C32.9145 11.3698 32.7745 11.6698 32.6745 11.9298C32.5745 12.1898 32.5045 12.4098 32.4545 12.5598C32.4245 12.6398 32.4045 12.7098 32.3945 12.7898C32.3945 12.7898 32.4845 12.7798 32.6345 12.7398C32.7845 12.6998 33.0045 12.6498 33.2745 12.5698C33.5445 12.4898 33.8645 12.3898 34.2145 12.2598C34.5645 12.1298 34.9545 11.9698 35.3645 11.7998C36.2845 11.3998 37.1745 10.9498 38.0445 10.4498C38.9845 9.90977 39.9445 9.28977 40.8845 8.61977C41.8145 7.95977 42.7145 7.24977 43.5745 6.49977C44.3545 5.81977 45.1045 5.09977 45.8145 4.33977C46.3545 3.76977 46.8545 3.16977 47.3345 2.54977C47.5145 2.31977 47.6445 2.10977 47.7345 1.97977C47.7845 1.90977 47.8345 1.82977 47.8745 1.75977Z" fill="#BA7C9E"/>
<path d="M44.3537 16.12C44.3537 16.12 44.2737 16.02 44.2337 15.98C44.1437 15.9 44.0338 15.77 43.8638 15.63C43.4338 15.27 42.9637 14.96 42.4637 14.72C41.7737 14.39 41.0438 14.16 40.2938 14.04C39.4038 13.89 38.5037 13.86 37.6037 13.95C36.6337 14.04 35.6837 14.24 34.7537 14.55C33.8537 14.85 32.9937 15.25 32.1737 15.74C31.7937 15.97 31.4338 16.2 31.1238 16.43C30.8138 16.66 30.5337 16.88 30.3137 17.07C30.0937 17.26 29.9138 17.44 29.7838 17.55C29.7138 17.61 29.6537 17.67 29.5938 17.74C29.6438 17.78 29.6837 17.82 29.7337 17.85C29.8737 17.95 30.0137 18.04 30.1637 18.12C30.3837 18.24 30.6037 18.35 30.8438 18.45C31.1337 18.57 31.4237 18.67 31.7237 18.75C32.4537 18.95 33.2138 19.07 33.9738 19.11C34.8538 19.15 35.7337 19.11 36.6037 19C37.5137 18.88 38.4138 18.69 39.2938 18.44C40.1338 18.2 40.9538 17.9 41.7438 17.55C42.3738 17.27 42.9937 16.95 43.5938 16.6C43.8237 16.47 44.0137 16.33 44.1437 16.26C44.2737 16.19 44.3438 16.13 44.3438 16.13L44.3537 16.12Z" fill="#BA7C9E"/>
<path d="M32.0232 0C32.0632 0.05 32.0932 0.1 32.1232 0.16C32.2032 0.31 32.2732 0.46 32.3432 0.62C32.5532 1.16 32.6832 1.72 32.7432 2.3C32.8232 3.11 32.8132 3.93 32.7032 4.73C32.5732 5.69 32.3632 6.65 32.0732 7.58C31.7632 8.58 31.3932 9.56 30.9632 10.51C30.5432 11.42 30.0732 12.31 29.5632 13.17C29.3232 13.57 29.0832 13.94 28.8532 14.28C28.6232 14.62 28.4132 14.91 28.2332 15.16C28.0532 15.41 27.8832 15.61 27.7732 15.74C27.7132 15.81 27.6532 15.88 27.5932 15.95C27.5432 15.91 27.5032 15.86 27.4632 15.81C27.3532 15.68 27.2432 15.55 27.1532 15.41C27.0132 15.2 26.8832 14.99 26.7732 14.76C26.6332 14.48 26.5132 14.18 26.4132 13.88C26.1732 13.12 26.0432 12.33 26.0332 11.54C26.0332 10.56 26.1432 9.59 26.3832 8.65C26.6532 7.59 27.0332 6.56 27.5332 5.59C28.0332 4.61 28.6232 3.67 29.3032 2.81C29.8632 2.09 30.4732 1.42 31.1432 0.79C31.4032 0.54 31.6432 0.35 31.7932 0.22C31.8732 0.15 31.9532 0.08 32.0432 0.02L32.0232 0Z" fill="#BA7C9E"/>
<path d="M36.0736 23.7209C36.0736 23.7209 35.9836 23.6409 35.9336 23.6009C35.8336 23.5409 35.6936 23.4309 35.5136 23.3309C35.0336 23.0509 34.5136 22.8409 33.9836 22.6809C33.2636 22.4809 32.5136 22.3809 31.7636 22.3809C30.8836 22.3809 30.0036 22.5009 29.1536 22.7309C28.2436 22.9809 27.3536 23.3309 26.5336 23.7909C25.7236 24.2309 24.9636 24.7609 24.2736 25.3609C23.9536 25.6509 23.6536 25.9309 23.3936 26.2009C23.1336 26.4709 22.9136 26.7309 22.7336 26.9609C22.5536 27.1909 22.4136 27.3909 22.3236 27.5209C22.2736 27.5909 22.2236 27.6609 22.1836 27.7309C22.2336 27.7609 22.2936 27.7909 22.3536 27.8209C22.4636 27.8609 22.6236 27.9509 22.8236 28.0109C23.0536 28.0909 23.2936 28.1609 23.5436 28.2109C23.8436 28.2709 24.1536 28.3209 24.4636 28.3509C25.2136 28.4209 25.9736 28.4109 26.7136 28.3209C27.5736 28.2109 28.4136 28.0309 29.2336 27.7709C30.8936 27.2509 32.4736 26.4909 33.9136 25.5109C34.4636 25.1409 34.9936 24.7309 35.4836 24.2909C35.6736 24.1209 35.8336 23.9609 35.9336 23.8709C36.0336 23.7809 36.0936 23.7109 36.0936 23.7109L36.0736 23.7209Z" fill="#BA7C9E"/>
<path d="M20.9132 10.1904C20.9132 10.1904 21.0032 10.2804 21.0432 10.3304C21.1532 10.4604 21.2532 10.5904 21.3432 10.7304C21.6532 11.2104 21.8932 11.7404 22.0732 12.2804C22.3132 13.0404 22.4732 13.8304 22.5332 14.6304C22.6032 15.5804 22.6032 16.5404 22.5132 17.4904C22.4232 18.5004 22.2632 19.5104 22.0332 20.5004C21.8132 21.4504 21.5332 22.3804 21.2032 23.3004C21.0432 23.7304 20.8932 24.1304 20.7332 24.4904C20.5732 24.8504 20.4332 25.1704 20.3032 25.4504C20.1732 25.7304 20.0432 25.9504 19.9732 26.0904C19.9332 26.1704 19.8932 26.2504 19.8432 26.3304C19.7932 26.3004 19.7432 26.2604 19.6932 26.2204C19.6032 26.1404 19.4632 26.0404 19.3132 25.8804C19.1332 25.7004 18.9632 25.5204 18.8132 25.3204C18.6232 25.0704 18.4432 24.8104 18.2932 24.5304C17.9132 23.8404 17.6332 23.1004 17.4632 22.3304C17.2632 21.3904 17.1832 20.4304 17.2332 19.4604C17.2832 18.3904 17.4532 17.3404 17.7332 16.3104C18.0132 15.2804 18.4032 14.2804 18.8832 13.3304C19.2732 12.5504 19.7232 11.7904 20.2332 11.0804C20.4232 10.8004 20.6232 10.5704 20.7332 10.4204C20.7932 10.3404 20.8632 10.2604 20.9332 10.1904H20.9132Z" fill="#BA7C9E"/>
<path d="M29.6052 32.4402C29.5552 32.4102 29.4952 32.3802 29.4352 32.3602C29.2852 32.2902 29.1252 32.2202 28.9752 32.1602C28.4552 31.9702 27.9052 31.8502 27.3552 31.7902C26.6152 31.7102 25.8652 31.7402 25.1352 31.8702C24.2852 32.0202 23.4552 32.2902 22.6652 32.6602C21.8252 33.0502 21.0252 33.5502 20.3052 34.1302C19.5952 34.7002 18.9552 35.3402 18.3952 36.0502C18.1352 36.3802 17.8952 36.7102 17.6952 37.0202C17.4952 37.3302 17.3252 37.6202 17.1852 37.8702C17.0452 38.1202 16.9552 38.3402 16.8852 38.4802C16.8452 38.5602 16.8152 38.6302 16.7852 38.7202C16.8452 38.7402 16.9052 38.7602 16.9652 38.7702C17.0752 38.7902 17.2552 38.8502 17.4552 38.8802C17.7052 38.9202 17.9452 38.9402 18.1952 38.9502C18.5052 38.9602 18.8152 38.9502 19.1252 38.9302C19.8752 38.8702 20.6052 38.7302 21.3252 38.5102C22.1452 38.2602 22.9352 37.9402 23.6852 37.5402C24.4652 37.1402 25.2152 36.6702 25.9352 36.1502C26.6052 35.6602 27.2352 35.1302 27.8252 34.5502C28.2852 34.0902 28.7252 33.6102 29.1252 33.1002C29.2852 32.9102 29.3952 32.7202 29.4852 32.6102C29.5252 32.5502 29.5652 32.4902 29.6052 32.4202V32.4402Z" fill="#BA7C9E"/>
<path d="M12.2348 21.8799C12.2848 21.9099 12.3348 21.9499 12.3748 21.9899C12.5048 22.0999 12.6348 22.2099 12.7548 22.3299C13.1448 22.7499 13.4848 23.2099 13.7548 23.7099C14.1348 24.4099 14.4448 25.1399 14.6548 25.9099C14.9048 26.8199 15.0848 27.7499 15.1848 28.6799C15.2848 29.6799 15.3248 30.6799 15.2848 31.6899C15.2448 32.6499 15.1548 33.6099 14.9948 34.5599C14.9248 34.9999 14.8448 35.4199 14.7548 35.7999C14.6648 36.1799 14.5848 36.5199 14.5048 36.7999C14.4248 37.0799 14.3448 37.3299 14.3048 37.4799C14.2848 37.5699 14.2548 37.6499 14.2148 37.7299C14.1548 37.7099 14.1048 37.6799 14.0448 37.6499C13.9448 37.5899 13.7848 37.5099 13.6148 37.3899C13.4048 37.2499 13.2048 37.0899 13.0248 36.9299C12.7948 36.7199 12.5748 36.4899 12.3648 36.2499C11.8648 35.6499 11.4448 34.9699 11.1448 34.2399C10.7748 33.3599 10.5148 32.4399 10.3848 31.4999C10.2348 30.4599 10.1948 29.3999 10.2748 28.3499C10.3548 27.2999 10.5348 26.2699 10.8248 25.2599C11.0548 24.4299 11.3448 23.6299 11.7048 22.8499C11.8348 22.5499 11.9848 22.2899 12.0648 22.1299C12.1048 22.0399 12.1648 21.9599 12.2248 21.8799H12.2348Z" fill="#BA7C9E"/>
<path d="M24.9346 42.0201C24.8746 42.0001 24.8146 41.9801 24.7546 41.9701C24.6446 41.9501 24.4646 41.8901 24.2646 41.8601C23.7146 41.7701 23.1646 41.7401 22.6146 41.7801C21.8746 41.8301 21.1446 41.9901 20.4546 42.2401C19.6446 42.5401 18.8846 42.9401 18.1746 43.4301C17.4146 43.9601 16.7346 44.5801 16.1246 45.2701C15.5346 45.9501 15.0246 46.6901 14.5946 47.4801C14.3946 47.8501 14.2246 48.2101 14.0746 48.5501C13.9246 48.8901 13.8146 49.2001 13.7246 49.4701C13.6346 49.7401 13.5846 49.9701 13.5346 50.1201C13.5046 50.2001 13.4846 50.2801 13.4746 50.3701C13.5346 50.3801 13.5946 50.3901 13.6646 50.3901C13.7846 50.3901 13.9646 50.4201 14.1646 50.4101C14.4146 50.4101 14.6646 50.3901 14.9046 50.3501C15.2146 50.3101 15.5146 50.2501 15.8146 50.1701C16.5346 49.9801 17.2346 49.7201 17.9046 49.3801C18.6646 48.9901 19.3746 48.5401 20.0546 48.0301C20.7546 47.5001 21.4046 46.9201 22.0146 46.2901C22.5846 45.7001 23.1046 45.0701 23.5746 44.4001C23.9446 43.8801 24.2846 43.3301 24.5846 42.7601C24.7046 42.5501 24.7846 42.3501 24.8446 42.2301C24.8846 42.1601 24.9146 42.1001 24.9446 42.0301L24.9346 42.0201Z" fill="#BA7C9E"/>
<path d="M5.98446 34.72C6.04446 34.74 6.09446 34.77 6.15446 34.8C6.30446 34.88 6.44446 34.97 6.58446 35.07C7.04446 35.41 7.46446 35.8 7.82446 36.24C8.33446 36.85 8.76446 37.52 9.11446 38.23C9.53446 39.07 9.87446 39.94 10.1345 40.84C10.4145 41.79 10.6345 42.77 10.7845 43.75C10.9245 44.69 11.0045 45.64 11.0245 46.6C11.0245 47.05 11.0245 47.46 11.0145 47.85C11.0045 48.24 10.9745 48.58 10.9545 48.88C10.9345 49.18 10.8945 49.42 10.8745 49.58C10.8745 49.67 10.8545 49.75 10.8345 49.84C10.7745 49.83 10.7145 49.81 10.6545 49.79C10.4945 49.74 10.3345 49.68 10.1845 49.61C9.95446 49.51 9.73446 49.39 9.52446 49.26C9.25446 49.09 9.00446 48.91 8.75446 48.71C8.15446 48.21 7.62446 47.62 7.19446 46.96C6.67446 46.17 6.25446 45.31 5.95446 44.42C5.61446 43.43 5.39446 42.41 5.28446 41.37C5.17446 40.34 5.16446 39.3 5.26446 38.26C5.34446 37.42 5.48446 36.58 5.68446 35.76C5.76446 35.44 5.85446 35.17 5.90446 34.99C5.93446 34.89 5.96446 34.8 5.99446 34.71L5.98446 34.72Z" fill="#BA7C9E"/>
<path d="M22.0839 52.1602C22.0239 52.1502 21.9639 52.1402 21.9039 52.1402C21.7839 52.1402 21.6139 52.1102 21.4039 52.1202C20.8539 52.1202 20.3039 52.2002 19.7639 52.3302C19.0439 52.5102 18.3539 52.7902 17.7139 53.1602C16.9739 53.5902 16.2839 54.1202 15.6839 54.7202C15.0339 55.3702 14.4639 56.1002 13.9839 56.8802C13.5239 57.6502 13.1439 58.4602 12.8539 59.3102C12.7239 59.7102 12.6139 60.1002 12.5339 60.4602C12.4539 60.8202 12.3939 61.1402 12.3539 61.4202C12.3139 61.7002 12.2939 61.9402 12.2739 62.0902C12.2639 62.1702 12.2539 62.2602 12.2539 62.3402C12.3139 62.3402 12.3839 62.3402 12.4439 62.3302C12.5639 62.3102 12.7439 62.3002 12.9439 62.2602C13.1839 62.2102 13.4239 62.1502 13.6639 62.0702C13.9539 61.9702 14.2439 61.8602 14.5239 61.7402C15.2039 61.4302 15.8439 61.0502 16.4439 60.5902C17.1239 60.0802 17.7539 59.5102 18.3239 58.8802C18.9139 58.2402 19.4639 57.5502 19.9539 56.8302C20.4139 56.1502 20.8139 55.4402 21.1639 54.7102C21.4339 54.1302 21.6739 53.5402 21.8739 52.9302C21.9539 52.7002 21.9939 52.4902 22.0339 52.3602C22.0739 52.2302 22.0939 52.1402 22.0939 52.1402L22.0839 52.1602Z" fill="#BA7C9E"/>
<path d="M2.15377 48.3303C2.21377 48.3403 2.27377 48.3603 2.33377 48.3803C2.49377 48.4303 2.65377 48.5003 2.80377 48.5703C3.31377 48.8203 3.80377 49.1303 4.23377 49.5003C4.83377 50.0103 5.38377 50.5903 5.85377 51.2203C6.41377 51.9703 6.90377 52.7603 7.31377 53.6003C7.76377 54.4903 8.14377 55.4003 8.46377 56.3403C8.76377 57.2403 9.00377 58.1603 9.19377 59.0903C9.27377 59.5203 9.34377 59.9403 9.39377 60.3203C9.44377 60.7003 9.48377 61.0403 9.50377 61.3403C9.52377 61.6403 9.53377 61.8803 9.54377 62.0403C9.54377 62.1303 9.54377 62.2203 9.54377 62.3003C9.48377 62.3003 9.42377 62.3003 9.35377 62.2803C9.23377 62.2603 9.06377 62.2403 8.85377 62.1903C8.61377 62.1303 8.37377 62.0603 8.13377 61.9603C7.84377 61.8403 7.55377 61.7103 7.28377 61.5603C6.60377 61.1703 5.98377 60.6903 5.45377 60.1203C4.80377 59.4403 4.25377 58.6703 3.79377 57.8403C3.29377 56.9303 2.89377 55.9603 2.60377 54.9603C2.31377 53.9703 2.12377 52.9503 2.04377 51.9203C1.97377 51.0803 1.96377 50.2403 2.02377 49.4003C2.04377 49.0803 2.08377 48.7903 2.10377 48.6103C2.11377 48.5103 2.13377 48.4203 2.15377 48.3203V48.3303Z" fill="#BA7C9E"/>
<path d="M21.0437 62.5998C20.9837 62.5998 20.9237 62.5998 20.8537 62.6098C20.7437 62.6298 20.5637 62.6298 20.3537 62.6798C19.8137 62.7798 19.2837 62.9498 18.7737 63.1698C18.0937 63.4698 17.4637 63.8698 16.9037 64.3398C16.2437 64.8898 15.6637 65.5298 15.1637 66.2298C14.6337 66.9798 14.1937 67.7998 13.8637 68.6598C13.5337 69.4998 13.3037 70.3698 13.1737 71.2498C13.1137 71.6698 13.0737 72.0698 13.0537 72.4298C13.0337 72.7898 13.0337 73.1298 13.0437 73.4098C13.0537 73.6898 13.0737 73.9298 13.0837 74.0898C13.0837 74.1698 13.0937 74.2598 13.1137 74.3398C13.1737 74.3298 13.2337 74.3098 13.2937 74.2998C13.4037 74.2598 13.5837 74.2198 13.7737 74.1398C14.0037 74.0498 14.2337 73.9498 14.4537 73.8298C14.7237 73.6798 14.9937 73.5198 15.2437 73.3498C15.8637 72.9298 16.4237 72.4298 16.9337 71.8898C17.5137 71.2698 18.0337 70.5998 18.4937 69.8798C18.9637 69.1498 19.3837 68.3798 19.7437 67.5798C20.0737 66.8398 20.3537 66.0698 20.5637 65.2798C20.7337 64.6698 20.8637 64.0398 20.9537 63.4098C20.9937 63.1698 21.0037 62.9598 21.0137 62.8198C21.0137 62.7398 21.0237 62.6598 21.0237 62.5898L21.0437 62.5998Z" fill="#BA7C9E"/>
<path d="M0.753906 62.3301C0.813906 62.3301 0.873906 62.3301 0.943906 62.3501C1.05391 62.3701 1.23391 62.3901 1.44391 62.4501C1.99391 62.6001 2.51391 62.8301 3.01391 63.1101C3.69391 63.5101 4.33391 63.9801 4.90391 64.5201C5.58391 65.1601 6.19391 65.8601 6.75391 66.6001C7.34391 67.3901 7.88391 68.2301 8.35391 69.1001C8.80391 69.9301 9.20391 70.7901 9.54391 71.6801C9.70391 72.1001 9.84391 72.4901 9.95391 72.8501C10.0639 73.2101 10.1639 73.5501 10.2439 73.8301C10.3239 74.1101 10.3639 74.3601 10.4039 74.5201C10.4239 74.6101 10.4439 74.6901 10.4539 74.7801C10.3939 74.7801 10.3339 74.7901 10.2639 74.8001C10.1439 74.8001 9.96391 74.8101 9.75391 74.8001C9.50391 74.7801 9.25391 74.7501 9.01391 74.7001C8.70391 74.6401 8.40391 74.5501 8.10391 74.4501C7.37391 74.1901 6.67391 73.8201 6.05391 73.3501C5.29391 72.7901 4.61391 72.1301 4.03391 71.4001C3.38391 70.5901 2.82391 69.7101 2.36391 68.7801C1.91391 67.8501 1.55391 66.8901 1.28391 65.8901C1.06391 65.0801 0.913906 64.2501 0.823906 63.4201C0.783906 63.1001 0.783906 62.8101 0.763906 62.6301C0.753906 62.5301 0.753906 62.4301 0.763906 62.3401L0.753906 62.3301Z" fill="#BA7C9E"/>
<path d="M21.8036 73.0703C21.8036 73.0703 21.7336 73.0803 21.6236 73.1103C21.4636 73.1503 21.3036 73.2003 21.1436 73.2603C20.6236 73.4603 20.1336 73.7103 19.6736 74.0303C19.0636 74.4503 18.5036 74.9503 18.0336 75.5203C17.4836 76.1803 17.0136 76.9103 16.6536 77.7003C16.2636 78.5403 15.9736 79.4203 15.7936 80.3303C15.6236 81.2103 15.5436 82.1203 15.5636 83.0203C15.5736 83.4503 15.6036 83.8503 15.6536 84.2103C15.7036 84.5703 15.7536 84.9103 15.8136 85.1903C15.8736 85.4703 15.9336 85.7003 15.9736 85.8603C15.9936 85.9403 16.0136 86.0303 16.0436 86.1003C16.1036 86.0803 16.1636 86.0503 16.2136 86.0203C16.3136 85.9603 16.4836 85.8903 16.6536 85.7803C16.8636 85.6503 17.0736 85.5103 17.2636 85.3503C17.5036 85.1603 17.7436 84.9503 17.9636 84.7403C18.4936 84.2103 18.9736 83.6303 19.3736 82.9903C19.8336 82.2703 20.2336 81.5103 20.5636 80.7203C20.9036 79.9103 21.1836 79.0703 21.3936 78.2203C21.5936 77.4303 21.7236 76.6203 21.8036 75.8003C21.8636 75.1603 21.8836 74.5203 21.8636 73.8803C21.8636 73.6403 21.8336 73.4303 21.8236 73.2903C21.8236 73.2203 21.8136 73.1503 21.7936 73.0703H21.8036Z" fill="#BA7C9E"/>
<path d="M1.7832 76.3606C1.8432 76.3606 1.9032 76.3506 1.9732 76.3506C2.1432 76.3506 2.3132 76.3506 2.4832 76.3606C3.0532 76.4106 3.6032 76.5406 4.1432 76.7406C4.8832 77.0106 5.5832 77.3706 6.2432 77.8006C7.0232 78.3106 7.7532 78.8906 8.4232 79.5306C9.1432 80.2106 9.8132 80.9406 10.4332 81.7206C11.0232 82.4706 11.5632 83.2506 12.0532 84.0706C12.2832 84.4506 12.4832 84.8206 12.6632 85.1606C12.8432 85.5006 12.9932 85.8106 13.1232 86.0806C13.2532 86.3506 13.3432 86.5806 13.4132 86.7306C13.4532 86.8106 13.4832 86.8906 13.5132 86.9806C13.4532 87.0006 13.3932 87.0206 13.3332 87.0306C13.1732 87.0706 13.0032 87.0906 12.8332 87.1106C12.5832 87.1406 12.3332 87.1506 12.0832 87.1406C11.7732 87.1406 11.4532 87.1006 11.1432 87.0506C10.3732 86.9206 9.6232 86.6706 8.9232 86.3206C8.0832 85.9006 7.2932 85.3706 6.5832 84.7406C5.8032 84.0506 5.0932 83.2806 4.4832 82.4406C3.8732 81.6006 3.3532 80.7106 2.9232 79.7706C2.5732 79.0106 2.2732 78.2206 2.0432 77.4106C1.9532 77.1006 1.9032 76.8206 1.8532 76.6406C1.8232 76.5406 1.8132 76.4506 1.8032 76.3506L1.7832 76.3606Z" fill="#BA7C9E"/>
<path d="M24.3844 83.2803C24.3244 83.3003 24.2644 83.3303 24.2144 83.3603C24.1144 83.4203 23.9444 83.4803 23.7644 83.5903C23.2844 83.8803 22.8544 84.2203 22.4544 84.6103C21.9244 85.1303 21.4644 85.7203 21.1044 86.3703C20.6744 87.1203 20.3544 87.9303 20.1344 88.7703C19.8944 89.6703 19.7744 90.6003 19.7644 91.5303C19.7544 92.4403 19.8444 93.3503 20.0244 94.2403C20.1144 94.6603 20.2144 95.0503 20.3244 95.4103C20.4344 95.7703 20.5544 96.0803 20.6644 96.3503C20.7744 96.6203 20.8844 96.8403 20.9544 96.9803C21.0244 97.1203 21.0744 97.2103 21.0744 97.2103C21.1244 97.1803 21.1844 97.1403 21.2344 97.1003C21.3244 97.0303 21.4744 96.9303 21.6244 96.7803C21.8144 96.6103 21.9844 96.4403 22.1544 96.2503C22.3544 96.0203 22.5544 95.7703 22.7244 95.5203C23.1544 94.9003 23.5144 94.2403 23.7944 93.5403C24.1144 92.7503 24.3744 91.9203 24.5544 91.0803C24.7444 90.2203 24.8644 89.3403 24.9144 88.4603C24.9644 87.6403 24.9544 86.8103 24.8844 85.9903C24.8344 85.3503 24.7344 84.7103 24.5944 84.0803C24.5444 83.8403 24.4844 83.6303 24.4544 83.5103C24.4244 83.3903 24.4044 83.2903 24.4044 83.2903L24.3844 83.2803Z" fill="#BA7C9E"/>
<path d="M5.24414 90.06C5.30414 90.04 5.36414 90.03 5.42414 90.01C5.59414 89.98 5.75414 89.95 5.92414 89.93C6.49414 89.88 7.06414 89.91 7.62414 90.01C8.40414 90.15 9.16414 90.38 9.88414 90.69C10.7441 91.06 11.5641 91.51 12.3441 92.02C13.1741 92.57 13.9741 93.18 14.7141 93.84C15.4341 94.48 16.1041 95.16 16.7341 95.89C17.0341 96.23 17.2941 96.56 17.5341 96.86C17.7741 97.16 17.9841 97.45 18.1541 97.7C18.3241 97.95 18.4641 98.16 18.5541 98.3C18.6441 98.44 18.6941 98.53 18.6941 98.53C18.6341 98.56 18.5841 98.59 18.5241 98.61C18.3641 98.68 18.2041 98.73 18.0441 98.78C17.8041 98.85 17.5641 98.91 17.3141 98.94C17.0041 98.99 16.6841 99.01 16.3741 99.02C15.5841 99.02 14.8041 98.91 14.0541 98.69C13.1441 98.42 12.2741 98.03 11.4641 97.53C10.5641 96.99 9.73414 96.34 8.97414 95.61C8.22414 94.89 7.54414 94.09 6.95414 93.24C6.46414 92.55 6.03414 91.81 5.66414 91.05C5.52414 90.76 5.41414 90.49 5.34414 90.32C5.30414 90.23 5.26414 90.14 5.24414 90.04V90.06Z" fill="#BA7C9E"/>
<path d="M28.7729 92.96C28.7229 92.99 28.6629 93.02 28.6129 93.06C28.5229 93.13 28.3729 93.23 28.2129 93.37C27.7929 93.74 27.4229 94.15 27.1029 94.61C26.6829 95.22 26.3429 95.89 26.1029 96.6C25.8229 97.43 25.6529 98.28 25.5929 99.15C25.5329 100.09 25.5829 101.03 25.7429 101.96C25.9029 102.87 26.1729 103.76 26.5229 104.61C26.6929 105.01 26.8729 105.39 27.0529 105.72C27.2329 106.05 27.4129 106.35 27.5729 106.6C27.7329 106.85 27.8829 107.05 27.9729 107.18C28.0229 107.25 28.0729 107.32 28.1329 107.39C28.1829 107.35 28.2229 107.3 28.2629 107.26C28.3329 107.17 28.4629 107.05 28.5929 106.88C28.7429 106.68 28.8829 106.47 29.0129 106.26C29.1729 105.99 29.3129 105.72 29.4429 105.43C29.7429 104.74 29.9729 104.01 30.1129 103.27C30.2829 102.42 30.3729 101.56 30.3829 100.69C30.4029 99.8 30.3529 98.9 30.2429 98.01C30.1329 97.18 29.9729 96.36 29.7429 95.56C29.5729 94.93 29.3529 94.31 29.1029 93.71C29.0129 93.48 28.9129 93.28 28.8529 93.16C28.8229 93.09 28.7929 93.03 28.7529 92.96H28.7729Z" fill="#BA7C9E"/>
<path d="M11.1333 103.03C11.1933 103 11.2433 102.97 11.3033 102.95C11.4633 102.89 11.6233 102.83 11.7833 102.79C12.3333 102.65 12.9033 102.57 13.4733 102.58C14.2733 102.58 15.0633 102.68 15.8333 102.87C16.7533 103.09 17.6433 103.39 18.5133 103.77C19.4433 104.17 20.3433 104.64 21.2033 105.17C22.0333 105.68 22.8433 106.24 23.6033 106.85C23.9633 107.14 24.2933 107.42 24.5933 107.68C24.8933 107.94 25.1533 108.19 25.3733 108.41C25.5933 108.63 25.7733 108.82 25.8833 108.94C25.9933 109.06 26.0633 109.14 26.0633 109.14C26.0133 109.18 25.9633 109.21 25.9133 109.25C25.7733 109.34 25.6233 109.43 25.4733 109.5C25.2433 109.61 25.0133 109.71 24.7733 109.79C24.4733 109.89 24.1633 109.97 23.8533 110.03C23.0733 110.17 22.2733 110.19 21.4833 110.1C20.5233 109.99 19.5833 109.75 18.6833 109.4C17.6933 109.01 16.7433 108.52 15.8533 107.92C14.9733 107.33 14.1533 106.66 13.4033 105.91C12.7933 105.3 12.2333 104.65 11.7233 103.96C11.5233 103.69 11.3733 103.45 11.2633 103.3C11.2033 103.22 11.1533 103.13 11.1133 103.04L11.1333 103.03Z" fill="#BA7C9E"/>
<path d="M34.9732 101.82C34.9732 101.82 34.8832 101.9 34.8432 101.95C34.7632 102.04 34.6332 102.16 34.5132 102.33C34.1732 102.77 33.8832 103.25 33.6632 103.76C33.3632 104.45 33.1532 105.17 33.0532 105.92C32.9432 106.8 32.9432 107.68 33.0532 108.56C33.1832 109.51 33.4232 110.44 33.7832 111.34C34.1332 112.22 34.5832 113.06 35.1132 113.85C35.3732 114.22 35.6232 114.57 35.8732 114.87C36.1232 115.17 36.3632 115.44 36.5832 115.66C36.8032 115.88 36.9932 116.05 37.1132 116.17C37.1832 116.23 37.2432 116.29 37.3232 116.35C37.3632 116.3 37.3932 116.25 37.4332 116.2C37.5232 116.06 37.6032 115.91 37.6832 115.76C37.7932 115.54 37.8832 115.3 37.9732 115.07C38.0732 114.78 38.1632 114.47 38.2232 114.17C38.3832 113.42 38.4532 112.66 38.4432 111.9C38.4332 111.02 38.3432 110.14 38.1732 109.28C38.0032 108.38 37.7732 107.5 37.4732 106.63C37.1932 105.82 36.8632 105.03 36.4832 104.27C36.1832 103.67 35.8532 103.09 35.4832 102.54C35.3432 102.33 35.2032 102.15 35.1232 102.03C35.0432 101.91 34.9832 101.84 34.9832 101.84L34.9732 101.82Z" fill="#BA7C9E"/>
<path d="M19.4438 114.931C19.4438 114.931 19.5438 114.861 19.5938 114.821C19.7338 114.731 19.8838 114.651 20.0438 114.581C20.5638 114.341 21.1138 114.171 21.6838 114.071C22.4738 113.931 23.2838 113.891 24.0838 113.941C25.0438 114.001 25.9938 114.141 26.9338 114.371C27.9438 114.611 28.9338 114.921 29.9038 115.301C30.8438 115.671 31.7638 116.091 32.6538 116.571C33.0738 116.801 33.4638 117.021 33.8138 117.231C34.1638 117.441 34.4838 117.641 34.7438 117.821C35.0038 118.001 35.2238 118.161 35.3738 118.261C35.4538 118.311 35.5338 118.371 35.6038 118.431C35.5638 118.481 35.5238 118.521 35.4738 118.571C35.3538 118.691 35.2238 118.801 35.0838 118.901C34.8838 119.051 34.6738 119.191 34.4438 119.311C34.1638 119.461 33.8738 119.601 33.5738 119.711C32.8138 119.981 32.0238 120.141 31.2138 120.181C30.2238 120.231 29.2338 120.161 28.2638 119.961C27.1838 119.751 26.1338 119.421 25.1338 118.981C24.1338 118.551 23.1838 118.021 22.2838 117.401C21.5538 116.901 20.8638 116.351 20.2238 115.741C19.9738 115.511 19.7738 115.291 19.6338 115.161C19.5638 115.091 19.4938 115.011 19.4238 114.931H19.4438Z" fill="#BA7C9E"/>
<path d="M42.9832 109.6C42.9832 109.6 42.9132 109.7 42.8732 109.75C42.8132 109.85 42.7132 110 42.6232 110.18C42.3732 110.68 42.1832 111.21 42.0732 111.76C41.9132 112.5 41.8632 113.26 41.9332 114.02C42.0032 114.92 42.1932 115.81 42.5032 116.66C42.8432 117.59 43.2932 118.48 43.8532 119.31C44.4032 120.14 45.0432 120.91 45.7632 121.6C46.1032 121.93 46.4432 122.23 46.7632 122.49C47.0832 122.75 47.3932 122.98 47.6632 123.16C47.9332 123.34 48.1632 123.49 48.3132 123.58C48.3932 123.63 48.4732 123.68 48.5632 123.72C48.5932 123.66 48.6132 123.61 48.6332 123.55C48.6932 123.39 48.7432 123.23 48.7832 123.07C48.8432 122.83 48.8932 122.58 48.9232 122.33C48.9632 122.02 48.9732 121.7 48.9732 121.38C48.9732 120.6 48.8732 119.82 48.6832 119.06C48.4732 118.18 48.1832 117.32 47.8232 116.48C47.1032 114.79 46.1532 113.2 45.0132 111.75C44.5832 111.2 44.1232 110.68 43.6332 110.19C43.4532 110 43.2732 109.85 43.1632 109.75C43.1032 109.69 43.0432 109.64 42.9732 109.6H42.9832Z" fill="#BA7C9E"/>
<path d="M30.1838 125.36C30.1838 125.36 30.2738 125.27 30.3138 125.23C30.4438 125.12 30.5738 125.01 30.7038 124.91C31.1838 124.58 31.6938 124.31 32.2438 124.12C33.0138 123.85 33.8138 123.67 34.6338 123.58C35.6138 123.48 36.6138 123.46 37.5938 123.53C38.6738 123.6 39.7338 123.74 40.7938 123.96C41.8338 124.17 42.8538 124.43 43.8638 124.76C44.3438 124.91 44.7838 125.07 45.1938 125.22C45.6038 125.37 45.9638 125.52 46.2838 125.65C46.6038 125.78 46.8538 125.91 47.0238 125.98C47.1938 126.05 47.2938 126.11 47.2938 126.11C47.2638 126.16 47.2338 126.22 47.1938 126.27C47.0938 126.41 46.9838 126.54 46.8738 126.67C46.7038 126.86 46.5138 127.03 46.3138 127.19C46.0638 127.39 45.7938 127.57 45.5138 127.73C44.7938 128.14 44.0238 128.43 43.2238 128.61C42.2238 128.83 41.2038 128.92 40.1838 128.89C39.0438 128.86 37.9038 128.7 36.7938 128.44C35.6938 128.17 34.6138 127.8 33.5738 127.34C32.7338 126.97 31.9138 126.53 31.1438 126.04C30.8438 125.85 30.5938 125.67 30.4238 125.56C30.3338 125.5 30.2538 125.44 30.1738 125.37L30.1838 125.36Z" fill="#BA7C9E"/>
<path d="M86.4535 104.56L90.6135 113.21L100.104 114.69L93.1635 121.33L94.6935 130.81L86.2435 126.26L77.6935 130.64L79.4135 121.19L72.6035 114.42L82.1235 113.13L86.4535 104.57V104.56Z" stroke="#BA7C9E" stroke-width="2"/>
<path d="M109.205 117.06L111.805 122.33L117.625 123.18L113.415 127.28L114.405 133.07L109.205 130.33L104.005 133.07L104.995 127.27L100.785 123.17L106.605 122.32L109.195 117.06H109.205Z" stroke="#BA7C9E" stroke-width="2"/>
<path d="M63.4945 117.06L66.0944 122.33L71.9145 123.18L67.7044 127.28L68.6945 133.08L63.4945 130.34L58.2845 133.08L59.2745 127.28L55.0645 123.18L60.8845 122.33L63.4845 117.06H63.4945Z" stroke="#BA7C9E" stroke-width="2"/>
</svg>
