<svg width="26" height="26" viewBox="0 0 26 26" fill="none" xmlns="http://www.w3.org/2000/svg">
<path d="M18.6657 3.70097C17.5728 2.8061 16.2949 2.16493 14.9242 1.82371C13.5535 1.48249 12.1241 1.44973 10.7392 1.72779C8.95855 2.09286 7.32034 2.96211 6.01975 4.23197C4.71916 5.50184 3.81101 7.11881 3.40348 8.89025C2.99594 10.6617 3.10621 12.513 3.72114 14.2235C4.33607 15.934 5.42974 17.4318 6.87188 18.5383C8.51841 19.7434 9.9203 21.2511 11.0026 22.9808L11.74 24.2071C11.8337 24.3628 11.9661 24.4917 12.1243 24.5812C12.2825 24.6707 12.4611 24.7177 12.6429 24.7177C12.8246 24.7177 13.0033 24.6707 13.1615 24.5812C13.3197 24.4917 13.4521 24.3628 13.5457 24.2071L14.2526 23.0293C15.1951 21.3725 16.4801 19.9359 18.022 18.8153C19.231 17.9835 20.2301 16.8822 20.9406 15.5981C21.6511 14.3141 22.0534 12.8825 22.116 11.4164C22.1785 9.95019 21.8994 8.48956 21.3009 7.1497C20.7023 5.80983 19.8005 4.6274 18.6667 3.6957L18.6657 3.70097ZM12.6418 15.2377C11.8084 15.2377 10.9937 14.9906 10.3007 14.5275C9.6077 14.0645 9.06759 13.4064 8.74865 12.6364C8.4297 11.8664 8.34625 11.0191 8.50885 10.2017C8.67144 9.38423 9.07278 8.63337 9.66211 8.04404C10.2514 7.45471 11.0023 7.05337 11.8197 6.89078C12.6372 6.72818 13.4844 6.81163 14.2544 7.13057C15.0244 7.44952 15.6826 7.98963 16.1456 8.68261C16.6086 9.37559 16.8558 10.1903 16.8558 11.0238C16.8558 12.1414 16.4118 13.2132 15.6215 14.0035C14.8313 14.7937 13.7594 15.2377 12.6418 15.2377Z" fill="black"/>
</svg>
