<svg width="11" height="11" viewBox="0 0 11 11" fill="none" xmlns="http://www.w3.org/2000/svg">
<g clip-path="url(#clip0_9_110)">
<path d="M8.58203 1.39648H1.86328C1.42875 1.39762 1.01231 1.57064 0.704918 1.87778C0.397525 2.18492 0.224151 2.60121 0.222656 3.03574L0.222656 7.41074C0.22379 7.84551 0.397006 8.26216 0.704437 8.56959C1.01187 8.87702 1.42851 9.05023 1.86328 9.05137H8.58203C9.0168 9.05023 9.43344 8.87702 9.74088 8.56959C10.0483 8.26216 10.2215 7.84551 10.2227 7.41074V3.03574C10.2212 2.60121 10.0478 2.18492 9.74039 1.87778C9.433 1.57064 9.01657 1.39762 8.58203 1.39648ZM9.04863 3.85605C9.04877 3.88972 9.04045 3.92288 9.02445 3.9525C9.00845 3.98212 8.98527 4.00725 8.95703 4.02559L5.55469 6.28105C5.52176 6.30298 5.48313 6.3148 5.44356 6.31504C5.404 6.31528 5.36523 6.30395 5.33203 6.28242L1.48965 3.81699C1.46052 3.79866 1.43652 3.77325 1.41989 3.74312C1.40325 3.71299 1.39453 3.67914 1.39453 3.64473V2.83164C1.39457 2.79504 1.40447 2.75912 1.42319 2.72766C1.44191 2.69621 1.46876 2.67038 1.50092 2.65289C1.53308 2.6354 1.56935 2.6269 1.60593 2.62828C1.64251 2.62967 1.67804 2.64088 1.70879 2.66074L5.32168 4.97578C5.35491 4.99732 5.39371 5.00867 5.43331 5.00843C5.47291 5.00818 5.51157 4.99636 5.54453 4.97441L8.73164 2.86504C8.76233 2.84451 8.79801 2.8327 8.83489 2.83088C8.87176 2.82907 8.90844 2.8373 8.94099 2.85471C8.97355 2.87212 9.00076 2.89806 9.01972 2.92974C9.03868 2.96141 9.04867 2.99765 9.04863 3.03457V3.85605Z" fill="#FF7244" stroke="#FF7244" stroke-width="0.25" stroke-miterlimit="10"/>
</g>
<defs>
<clipPath id="clip0_9_110">
<rect width="10" height="10" fill="white" transform="translate(0.222656 0.222656)"/>
</clipPath>
</defs>
</svg>
