<svg width="11" height="10" viewBox="0 0 11 10" fill="none" xmlns="http://www.w3.org/2000/svg">
<g id="telephone-call 1" clip-path="url(#clip0_9_102)">
<path id="Vector" d="M3.20496 1.0892C3.41931 1.34478 4.36853 2.84375 4.32495 3.0929C4.30419 3.20987 4.20448 3.29935 3.91878 3.53885C3.77815 3.6496 3.64645 3.77124 3.52488 3.90263C3.58303 4.14335 3.66941 4.37637 3.78221 4.59684C4.20316 5.46146 4.90187 6.15996 5.76661 6.58066C5.98708 6.69346 6.2201 6.77984 6.46083 6.83799C6.59222 6.71642 6.71385 6.58472 6.82461 6.44409C7.0641 6.15869 7.153 6.05868 7.27056 6.03792C7.52029 5.99434 9.01867 6.94443 9.27425 7.1579C9.38011 7.24739 9.45117 7.32868 9.45117 7.43278C9.45117 7.73457 7.76329 9.09961 7.54456 9.09961C7.52672 9.09961 5.76954 9.07037 3.51172 6.85115C1.2925 4.59333 1.26326 2.83615 1.26326 2.81831C1.26326 2.59958 2.6283 0.911699 2.93009 0.911699C3.03419 0.911699 3.11548 0.982758 3.20496 1.0892Z" fill="#FF7244"/>
<path id="Vector_2" d="M5.64985 2.95834L5.64985 2.37349C6.27009 2.37418 6.86472 2.62088 7.30329 3.05945C7.74187 3.49802 7.98856 4.09266 7.98926 4.71289L7.40441 4.71289C7.40394 4.2477 7.21894 3.80169 6.89 3.47275C6.56106 3.14381 6.11505 2.9588 5.64985 2.95834Z" fill="#FF7244"/>
<path id="Vector_3" d="M5.64964 1.49621L5.64964 0.911361C6.65751 0.912521 7.62377 1.31341 8.33645 2.02609C9.04912 2.73876 9.45001 3.70502 9.45117 4.71289L8.86632 4.71289C8.86531 3.86008 8.52609 3.04249 7.92307 2.43947C7.32004 1.83644 6.50245 1.49722 5.64964 1.49621Z" fill="#FF7244"/>
</g>
<defs>
<clipPath id="clip0_9_102">
<rect width="9.35761" height="9.35761" fill="white" transform="matrix(-4.37114e-08 -1 -1 4.37114e-08 10.0361 9.68359)"/>
</clipPath>
</defs>
</svg>
