<svg width="114" height="114" viewBox="0 0 114 114" fill="none" xmlns="http://www.w3.org/2000/svg">
<path d="M39.4612 52.6161H24.1149C22.2878 52.6161 20.7346 51.9768 19.4556 50.6978C18.1773 49.4188 17.5374 47.8661 17.5374 46.0385V43.8472C17.5374 39.0056 19.2504 34.8725 22.6763 31.4466C26.102 28.0219 30.2357 26.3089 35.0769 26.3089H39.4612C40.6485 26.3089 41.6758 25.8748 42.5439 25.0073C43.4116 24.1394 43.8455 23.1121 43.8455 21.9246V13.1545C43.8455 11.9672 43.4114 10.939 42.5439 10.0711C41.676 9.20434 40.6487 8.76953 39.4612 8.76953H35.0769C30.3264 8.76953 25.7943 9.69529 21.4777 11.5442C17.1616 13.3943 13.4283 15.8951 10.2765 19.047C7.12485 22.1974 4.62472 25.9309 2.77488 30.2475C0.92504 34.5637 0 39.097 0 43.847V92.0766C0 95.7324 1.27826 98.8365 3.83598 101.395C6.39394 103.952 9.50044 105.231 13.154 105.231H39.4629C43.1162 105.231 46.2218 103.952 48.78 101.395C51.3372 98.8365 52.6162 95.7324 52.6162 92.0766V65.7701C52.6162 62.1151 51.3372 59.011 48.7783 56.452C46.2213 53.895 43.1146 52.6161 39.4612 52.6161Z" fill="#FF7244"/>
<path d="M110.165 56.452C107.608 53.895 104.502 52.6161 100.848 52.6161H85.5021C83.676 52.6161 82.1213 51.9768 80.8445 50.6978C79.565 49.4188 78.9262 47.8661 78.9262 46.0385V43.8472C78.9262 39.0056 80.6393 34.8725 84.0635 31.4466C87.488 28.0219 91.6215 26.3089 96.465 26.3089H100.848C102.036 26.3089 103.064 25.8748 103.931 25.0073C104.798 24.1394 105.234 23.1121 105.234 21.9246V13.1545C105.234 11.9672 104.799 10.939 103.931 10.0711C103.064 9.20434 102.036 8.76953 100.848 8.76953H96.465C91.7119 8.76953 87.1808 9.69529 82.863 11.5442C78.5476 13.3943 74.8155 15.8951 71.6636 19.047C68.5118 22.1974 66.0105 25.9309 64.1613 30.2475C62.312 34.5637 61.3857 39.097 61.3857 43.847V92.0766C61.3857 95.7324 62.6652 98.8365 65.2222 101.395C67.7794 103.952 70.8852 105.231 74.5393 105.231H100.847C104.501 105.231 107.607 103.952 110.164 101.395C112.722 98.8365 113.999 95.7324 113.999 92.0766V65.7701C114 62.1148 112.722 59.011 110.165 56.452Z" fill="#FF7244"/>
</svg>
